<svg width="64" height="64" viewBox="0 0 64 64" fill="none" xmlns="http://www.w3.org/2000/svg">
<path fill-rule="evenodd" clip-rule="evenodd" d="M9.63775 25.644C8.18677 25.644 7.21867 27.1406 7.81358 28.464L14.7164 43.82C15.0392 44.5381 15.7533 45 16.5406 45H47.4594C48.2467 45 48.9608 44.5381 49.2836 43.82L56.1864 28.464C56.7813 27.1406 55.8132 25.644 54.3623 25.644H9.63775ZM5.98941 29.284C4.7996 26.6372 6.7358 23.644 9.63775 23.644H54.3623C57.2642 23.644 59.2004 26.6372 58.0106 29.284L51.1077 44.64C50.4621 46.0762 49.034 47 47.4594 47H16.5406C14.966 47 13.5379 46.0762 12.8923 44.64L5.98941 29.284Z" fill="black"/>
<path fill-rule="evenodd" clip-rule="evenodd" d="M21.9614 11.1127C22.4514 11.3675 22.642 11.9713 22.3872 12.4613L15.8872 24.9613C15.6324 25.4513 15.0286 25.642 14.5387 25.3872C14.0487 25.1324 13.858 24.5286 14.1128 24.0386L20.6128 11.5386C20.8676 11.0486 21.4714 10.8579 21.9614 11.1127Z" fill="black"/>
<path fill-rule="evenodd" clip-rule="evenodd" d="M49.9614 25.3872C50.4514 25.1324 50.642 24.5286 50.3872 24.0386L43.8872 11.5386C43.6324 11.0486 43.0286 10.8579 42.5387 11.1127C42.0487 11.3675 41.858 11.9713 42.1128 12.4613L48.6128 24.9613C48.8676 25.4513 49.4714 25.642 49.9614 25.3872Z" fill="black"/>
<path fill-rule="evenodd" clip-rule="evenodd" d="M7.5 30C7.5 29.7238 7.72386 29.5 8 29.5H56C56.2761 29.5 56.5 29.7238 56.5 30C56.5 30.2761 56.2761 30.5 56 30.5H8C7.72386 30.5 7.5 30.2761 7.5 30Z" fill="black"/>
<path fill-rule="evenodd" clip-rule="evenodd" d="M20 34H19C18.4477 34 18 34.4477 18 35V40C18 40.5522 18.4477 41 19 41H20C20.5523 41 21 40.5522 21 40V35C21 34.4477 20.5523 34 20 34ZM19 33C17.8954 33 17 33.8954 17 35V40C17 41.1045 17.8954 42 19 42H20C21.1046 42 22 41.1045 22 40V35C22 33.8954 21.1046 33 20 33H19Z" fill="black"/>
<path fill-rule="evenodd" clip-rule="evenodd" d="M28 34H27C26.4477 34 26 34.4477 26 35V40C26 40.5522 26.4477 41 27 41H28C28.5523 41 29 40.5522 29 40V35C29 34.4477 28.5523 34 28 34ZM27 33C25.8954 33 25 33.8954 25 35V40C25 41.1045 25.8954 42 27 42H28C29.1046 42 30 41.1045 30 40V35C30 33.8954 29.1046 33 28 33H27Z" fill="black"/>
<path fill-rule="evenodd" clip-rule="evenodd" d="M36 34H35C34.4477 34 34 34.4477 34 35V40C34 40.5522 34.4477 41 35 41H36C36.5523 41 37 40.5522 37 40V35C37 34.4477 36.5523 34 36 34ZM35 33C33.8954 33 33 33.8954 33 35V40C33 41.1045 33.8954 42 35 42H36C37.1046 42 38 41.1045 38 40V35C38 33.8954 37.1046 33 36 33H35Z" fill="black"/>
<path fill-rule="evenodd" clip-rule="evenodd" d="M44 34H43C42.4477 34 42 34.4477 42 35V40C42 40.5522 42.4477 41 43 41H44C44.5523 41 45 40.5522 45 40V35C45 34.4477 44.5523 34 44 34ZM43 33C41.8954 33 41 33.8954 41 35V40C41 41.1045 41.8954 42 43 42H44C45.1046 42 46 41.1045 46 40V35C46 33.8954 45.1046 33 44 33H43Z" fill="black"/>
</svg>
