<svg width="64" height="64" viewBox="0 0 64 64" fill="none" xmlns="http://www.w3.org/2000/svg">
<path fill-rule="evenodd" clip-rule="evenodd" d="M5 5C5 4.44772 5.44772 4 6 4H8.73262C11.5263 4 13.9503 5.92808 14.5788 8.65012L16.6019 17.4118H51.5952C55.499 17.4118 58.3632 21.0807 57.4159 24.8678L56.0033 30.5148C55.3353 33.1854 52.9356 35.0588 50.1827 35.0588H20.4194V38C20.4194 40.2091 22.2102 42 24.4194 42H54.086C54.6383 42 55.086 42.4477 55.086 43C55.086 43.5523 54.6383 44 54.086 44H24.4194C21.1056 44 18.4194 41.3137 18.4194 38V34.1728L12.6301 9.10008C12.2111 7.28539 10.5951 6 8.73262 6H6C5.44772 6 5 5.55228 5 5ZM20.2148 33.0588H26.1828V27.2353H18.8701L20.2148 33.0588ZM18.4083 25.2353H26.1828V19.4118H17.0637L18.4083 25.2353ZM28.1828 19.4118V25.2353H35.7527V19.4118H28.1828ZM37.7527 19.4118V25.2353H45.3979V19.4118H37.7527ZM47.3979 19.4118V25.2353H55.2623L55.4757 24.3824C56.1072 21.8577 54.1977 19.4118 51.5952 19.4118H47.3979ZM54.7621 27.2353H47.3979V33.0588H50.1827C52.0179 33.0588 53.6178 31.8099 54.0631 30.0295L54.7621 27.2353ZM45.3979 33.0588V27.2353H37.7527V33.0588H45.3979ZM35.7527 33.0588V27.2353H28.1828V33.0588H35.7527Z" fill="black"/>
<path fill-rule="evenodd" clip-rule="evenodd" d="M24 56C25.6569 56 27 54.6569 27 53C27 51.3431 25.6569 50 24 50C22.3431 50 21 51.3431 21 53C21 54.6569 22.3431 56 24 56ZM24 58C26.7614 58 29 55.7614 29 53C29 50.2386 26.7614 48 24 48C21.2386 48 19 50.2386 19 53C19 55.7614 21.2386 58 24 58Z" fill="black"/>
<path fill-rule="evenodd" clip-rule="evenodd" d="M48 56C49.6569 56 51 54.6569 51 53C51 51.3431 49.6569 50 48 50C46.3431 50 45 51.3431 45 53C45 54.6569 46.3431 56 48 56ZM48 58C50.7614 58 53 55.7614 53 53C53 50.2386 50.7614 48 48 48C45.2386 48 43 50.2386 43 53C43 55.7614 45.2386 58 48 58Z" fill="black"/>
</svg>
