<svg width="64" height="64" viewBox="0 0 64 64" fill="none" xmlns="http://www.w3.org/2000/svg">
<path fill-rule="evenodd" clip-rule="evenodd" d="M5 16.0001C5 13.7909 6.79086 12.0001 9 12.0001H55.1166C57.3257 12.0001 59.1166 13.7909 59.1166 16.0001V42.0015C59.1166 44.2106 57.3257 46.0015 55.1166 46.0015H45.0033C44.3678 46.0015 43.7701 46.3035 43.3932 46.8151L36.907 55.6177C34.6165 58.7262 29.6868 57.1062 29.6868 53.2449V48.0015C29.6868 46.8969 28.7914 46.0015 27.6868 46.0015H9C6.79086 46.0015 5 44.2106 5 42.0015V16.0001ZM9 14.0001C7.89543 14.0001 7 14.8955 7 16.0001V42.0015C7 43.106 7.89543 44.0015 9 44.0015H27.6868C29.8959 44.0015 31.6868 45.7923 31.6868 48.0015V53.2449C31.6868 55.1755 34.1517 55.9856 35.2969 54.4313L41.7831 45.6287C42.537 44.6055 43.7323 44.0015 45.0033 44.0015H55.1166C56.2212 44.0015 57.1166 43.106 57.1166 42.0015V16.0001C57.1166 14.8955 56.2212 14.0001 55.1166 14.0001H9Z" fill="black"/>
<path fill-rule="evenodd" clip-rule="evenodd" d="M36.742 19.8109C37.1326 19.4204 37.7657 19.4204 38.1563 19.8109L42.1149 23.7696L38.1563 27.7282C37.7657 28.1187 37.1326 28.1187 36.742 27.7282C36.3515 27.3377 36.3515 26.7045 36.742 26.314L38.2864 24.7696H24.1916C23.087 24.7696 22.1916 25.665 22.1916 26.7696V31.8983C22.1916 32.4506 21.7439 32.8983 21.1916 32.8983C20.6393 32.8983 20.1916 32.4506 20.1916 31.8983V26.7696C20.1916 24.5604 21.9825 22.7696 24.1916 22.7696H38.2864L36.742 21.2252C36.3515 20.8346 36.3515 20.2015 36.742 19.8109Z" fill="black"/>
<path fill-rule="evenodd" clip-rule="evenodd" d="M29.2147 39.9215C28.8241 40.312 28.191 40.312 27.8005 39.9215L23.8418 35.9629L27.8005 32.0043C28.191 31.6137 28.8241 31.6137 29.2147 32.0043C29.6052 32.3948 29.6052 33.028 29.2147 33.4185L27.6703 34.9629H41.7651C42.8697 34.9629 43.7651 34.0675 43.7651 32.9629V27.8341C43.7651 27.2818 44.2128 26.8341 44.7651 26.8341C45.3174 26.8341 45.7651 27.2818 45.7651 27.8341V32.9629C45.7651 35.172 43.9742 36.9629 41.7651 36.9629H27.6703L29.2147 38.5073C29.6052 38.8978 29.6052 39.531 29.2147 39.9215Z" fill="black"/>
</svg>
