<svg width="64" height="64" viewBox="0 0 64 64" fill="none" xmlns="http://www.w3.org/2000/svg">
<path fill-rule="evenodd" clip-rule="evenodd" d="M41.0822 45.156L31.8328 44.5517L22.9178 45.156C22.6373 44.2825 21.8117 43.6496 20.8369 43.6496H13.8132C13.0822 43.6496 12.4352 44.0054 12.039 44.5517C9.35888 45.1454 6.6452 46.31 4.41219 48.2675C3.91582 48.7027 3.44321 49.177 2.99999 49.6929L5.16859 51.5208C6.39893 50.0886 7.94404 49.029 9.6301 48.2859C10.2792 47.9998 10.9492 47.7606 11.6301 47.5651V57H23.02V48.2986L23.9602 47.844L31.8336 47.24L40.0414 47.8448L40.98 48.2986V57H52.3699V47.5651C53.0508 47.7606 53.7208 47.9998 54.3699 48.2859C56.0559 49.029 57.6011 50.0886 58.8314 51.5208L61 49.6929C60.5568 49.177 60.0842 48.7027 59.5878 48.2675C57.3548 46.31 54.6411 45.1454 51.961 44.5517C51.5648 44.0054 50.9177 43.6496 50.1868 43.6496H43.1631C42.1882 43.6496 41.3626 44.2825 41.0822 45.156ZM53.0162 42.7463C52.271 42.0653 51.2759 41.6496 50.1868 41.6496H43.1631C41.9063 41.6496 40.7745 42.202 40.006 43.0815L31.8304 42.5472L23.9916 43.0787C23.223 42.2009 22.0924 41.6496 20.8369 41.6496H13.8132C12.7241 41.6496 11.729 42.0653 10.9838 42.7463C7.59839 43.599 4.11194 45.3293 1.48292 48.3896L0.167358 49.921L5.39458 54.3269L6.68566 52.824C7.50172 51.8741 8.50401 51.1057 9.6301 50.507V59H25.02V49.7686L31.8367 49.2457L38.98 49.772V59H54.3699V50.507C55.496 51.1057 56.4983 51.8741 57.3143 52.824L58.6054 54.3269L63.8326 49.921L62.5171 48.3896C59.888 45.3293 56.4016 43.599 53.0162 42.7463ZM53.0411 34.0897C53.0411 37.4709 50.2791 40.1795 46.9122 40.1795C43.5453 40.1795 40.7834 37.4709 40.7834 34.0897C40.7834 30.7086 43.5453 28 46.9122 28C50.2791 28 53.0411 30.7086 53.0411 34.0897ZM17.0878 40.1795C13.7209 40.1795 10.9589 37.4709 10.9589 34.0897C10.9589 30.7086 13.7209 28 17.0878 28C20.4546 28 23.2166 30.7086 23.2166 34.0897C23.2166 37.4709 20.4546 40.1795 17.0878 40.1795ZM12.9589 34.0897C12.9589 36.3484 14.8075 38.1795 17.0878 38.1795C19.368 38.1795 21.2166 36.3484 21.2166 34.0897C21.2166 31.831 19.368 30 17.0878 30C14.8075 30 12.9589 31.831 12.9589 34.0897ZM51.0411 34.0897C51.0411 36.3484 49.1925 38.1795 46.9122 38.1795C44.6319 38.1795 42.7834 36.3484 42.7834 34.0897C42.7834 31.831 44.6319 30 46.9122 30C49.1925 30 51.0411 31.831 51.0411 34.0897Z" fill="black"/>
<path fill-rule="evenodd" clip-rule="evenodd" d="M7.99999 9.67126C7.99999 6.52601 10.5816 4 13.7368 4H28.2631C29.6889 4 30.9955 4.51505 32 5.36811C33.0045 4.51505 34.3111 4 35.7368 4H50.2631C53.4183 4 56 6.52601 56 9.67126V20.9407C56 22.686 54.63 24.0932 52.921 24.2101V27.2199C52.921 28.8656 50.9073 29.5927 49.8207 28.4306L45.8818 24.2179H35.7368C34.3111 24.2179 33.0045 23.7029 32 22.8498C30.9955 23.7029 29.6889 24.2179 28.2631 24.2179H18.1182L14.1792 28.4306C13.0927 29.5927 11.0789 28.8656 11.0789 27.2199V24.2101C9.37001 24.0933 7.99999 22.686 7.99999 20.9407V9.67126ZM30.7253 21.3085C30.2638 20.4915 30 19.5491 30 18.5467V9.67126C30 8.66881 30.2638 7.72639 30.7253 6.90943C30.0684 6.34352 29.2079 6 28.2631 6H13.7368C11.6598 6 9.99999 7.65678 9.99999 9.67126V20.9407C9.99999 21.633 10.573 22.2179 11.3092 22.2179C12.2734 22.2179 13.0789 22.9924 13.0789 23.977V26.6791L16.7193 22.7857C17.0594 22.4219 17.5351 22.2179 18.0301 22.2179H28.2631C29.2079 22.2179 30.0683 21.8744 30.7253 21.3085ZM35.7368 6C34.5339 6 33.4676 6.55691 32.7842 7.42071C32.2915 8.04349 32 8.82318 32 9.67126V18.5467C32 19.3947 32.2915 20.1744 32.7842 20.7972C33.4676 21.661 34.5339 22.2179 35.7368 22.2179H45.9699C46.4649 22.2179 46.9405 22.4219 47.2807 22.7857L50.921 26.6791V23.977C50.921 22.9924 51.7266 22.2179 52.6908 22.2179C53.427 22.2179 54 21.633 54 20.9407V9.67126C54 7.65678 52.3401 6 50.2631 6H35.7368Z" fill="black"/>
<path fill-rule="evenodd" clip-rule="evenodd" d="M43 7.8453L48.3301 10.9226V17.0774L43 20.1547L37.6699 17.0774V10.9226L43 7.8453ZM43 10.1547L39.6699 12.0774V15.9227L43 17.8453L46.3301 15.9227V12.0774L43 10.1547Z" fill="black"/>
<path fill-rule="evenodd" clip-rule="evenodd" d="M21 10C19.4506 10 18 11.453 18 13.5C18 15.547 19.4506 17 21 17C22.5494 17 24 15.547 24 13.5C24 11.453 22.5494 10 21 10ZM16 13.5C16 10.5764 18.1311 8 21 8C23.8689 8 26 10.5764 26 13.5C26 16.4236 23.8689 19 21 19C18.1311 19 16 16.4236 16 13.5Z" fill="black"/>
</svg>
