<svg width="64" height="64" viewBox="0 0 64 64" fill="none" xmlns="http://www.w3.org/2000/svg">
<path fill-rule="evenodd" clip-rule="evenodd" d="M10.9513 41.2811C10.1702 40.5 10.1703 39.2337 10.9513 38.4526L32.9745 16.4295C33.3397 16.0642 33.832 15.8545 34.3484 15.8441L48.7812 15.5535C49.9171 15.5306 50.8439 16.4574 50.821 17.5933L50.5304 32.0261C50.52 32.5425 50.3102 33.0348 49.945 33.4L27.9219 55.4232C27.1408 56.2042 25.8745 56.2042 25.0934 55.4232L10.9513 41.2811ZM34.3887 17.8437L12.3655 39.8669L26.5076 54.009L48.5308 31.9858L48.8214 17.5531L34.3887 17.8437Z" fill="black"/>
<path fill-rule="evenodd" clip-rule="evenodd" d="M43.1247 24.6641C43.7104 24.0783 43.7104 23.1285 43.1247 22.5427C42.5389 21.957 41.5891 21.957 41.0033 22.5427C40.4175 23.1285 40.4175 24.0783 41.0033 24.6641C41.5891 25.2498 42.5389 25.2498 43.1247 24.6641ZM43.8318 25.3712C44.8081 24.3949 44.8081 22.8119 43.8318 21.8356C42.8555 20.8593 41.2725 20.8593 40.2962 21.8356C39.3199 22.8119 39.3199 24.3949 40.2962 25.3712C41.2725 26.3475 42.8555 26.3475 43.8318 25.3712Z" fill="black"/>
<path d="M23.762 40.7712C23.762 40.7712 23.7047 40.7861 23.5901 40.8158C23.4756 40.8455 23.3334 40.8943 23.1637 40.9622C22.9898 41.0258 22.8116 41.1064 22.6292 41.204C22.4467 41.3016 22.2876 41.4182 22.1519 41.554C22.0458 41.6601 21.9758 41.764 21.9419 41.8658C21.9079 41.9677 21.9313 42.0589 22.0119 42.1395C22.1307 42.2583 22.2898 42.2689 22.4892 42.1713C22.6886 42.0652 22.9601 41.9252 23.3037 41.7513C23.6686 41.5561 24.008 41.4119 24.322 41.3185C24.6359 41.2252 24.935 41.2104 25.2193 41.274C25.4993 41.3334 25.7814 41.5052 26.0657 41.7895C26.3372 42.061 26.5175 42.3389 26.6066 42.6232C26.6915 42.9032 26.7063 43.1811 26.6512 43.4568C26.596 43.7326 26.4921 43.9978 26.3394 44.2523C26.1824 44.5026 25.9978 44.7339 25.7857 44.946C25.5693 45.1624 25.3211 45.3681 25.0411 45.5633C24.7611 45.75 24.4726 45.9154 24.1756 46.0597C23.8744 46.1997 23.5795 46.3079 23.291 46.3843L22.7374 44.7614C22.7374 44.7614 22.8052 44.7445 22.941 44.7105C23.0768 44.6766 23.2465 44.6214 23.4501 44.5451C23.6538 44.4687 23.8659 44.3711 24.0865 44.2523C24.3114 44.1293 24.5108 43.9808 24.6847 43.8069C24.8205 43.6711 24.8969 43.5608 24.9138 43.4759C24.9308 43.3826 24.9096 43.3062 24.8502 43.2468C24.7611 43.1577 24.6465 43.1365 24.5065 43.1832C24.3623 43.2256 24.1926 43.302 23.9974 43.4123C23.8023 43.5141 23.5838 43.6265 23.3419 43.7496C22.8074 44.0126 22.3555 44.142 21.9864 44.1378C21.6131 44.1293 21.2609 43.9596 20.93 43.6287C20.5948 43.2935 20.3933 42.935 20.3254 42.5532C20.2575 42.1713 20.2936 41.7958 20.4336 41.4267C20.5736 41.0491 20.7921 40.7118 21.0891 40.4149C21.3097 40.1942 21.5494 40.0097 21.8082 39.8612C22.067 39.7042 22.3237 39.5748 22.5783 39.473C22.8371 39.3669 23.0683 39.28 23.2719 39.2121L23.762 40.7712Z" fill="black"/>
<path d="M24.4086 37.1717L25.7959 35.7844L31.7526 38.8645L30.4925 40.1246L29.3343 39.5137L28.1315 40.7165L28.7488 41.8683L27.4824 43.1348L24.4086 37.1717ZM28.3097 38.8836L26.3178 37.6936L27.4887 39.7046L28.3097 38.8836Z" fill="black"/>
<path d="M32.128 38.4891L27.6096 33.9707L28.8506 32.7297L32.2871 36.1663L34.3363 34.1171L35.4182 35.1989L32.128 38.4891Z" fill="black"/>
<path d="M37.989 30.4644L39.0709 31.5463L35.8507 34.7664L31.3323 30.248L34.4952 27.0851L35.577 28.167L33.6551 30.0889L34.2915 30.7253L35.9334 29.0834L36.9389 30.0889L35.297 31.7308L36.0098 32.4436L37.989 30.4644Z" fill="black"/>
<path fill-rule="evenodd" clip-rule="evenodd" d="M37.619 15.9711C38.6942 18.8993 40.8006 21.6329 42.4175 23.2498L41.7104 23.957C40.0275 22.274 37.8206 19.4215 36.6802 16.3158C35.537 13.2024 35.4365 9.72475 38.1749 6.98639L38.882 7.6935C36.5292 10.0463 36.5466 13.0505 37.619 15.9711Z" fill="black"/>
<path fill-rule="evenodd" clip-rule="evenodd" d="M55.6684 29.488C53.7778 29.9768 51.7645 29.9389 50.4786 29.7552L50.62 28.7653C51.809 28.9351 53.6847 28.968 55.4181 28.5198C57.155 28.0708 58.6506 27.1687 59.275 25.5452L60.2083 25.9042C59.4185 27.9577 57.5553 29.0002 55.6684 29.488Z" fill="black"/>
</svg>
