<?xml version="1.0" standalone="no"?>
<!DOCTYPE svg PUBLIC "-//W3C//DTD SVG 20010904//EN"
 "http://www.w3.org/TR/2001/REC-SVG-20010904/DTD/svg10.dtd">
<svg version="1.0" xmlns="http://www.w3.org/2000/svg"
 width="732.000000pt" height="1280.000000pt" viewBox="0 0 732.000000 1280.000000"
 preserveAspectRatio="xMidYMid meet">
<metadata>
Created by potrace 1.15, written by Peter Selinger 2001-2017
</metadata>
<g transform="translate(0.000000,1280.000000) scale(0.100000,-0.100000)"
fill="#FFCC00" stroke="none">
<path d="M3450 12794 c-440 -37 -725 -99 -1060 -231 -364 -143 -682 -338
-1019 -627 -151 -129 -422 -403 -523 -529 -339 -425 -566 -936 -658 -1482 -20
-118 -20 -156 -20 -2295 0 -1196 -3 -3245 -6 -4553 l-7 -2377 -79 0 -78 0 0
-145 0 -145 3594 0 c3185 0 3595 2 3600 15 4 11 21 15 66 15 l60 0 0 130 0
130 -80 0 -81 0 1 4623 c1 3212 -2 4645 -10 4697 -45 320 -132 591 -291 910
-269 537 -684 988 -1219 1324 -447 281 -947 453 -1515 522 -122 14 -574 27
-675 18z m-6 -1026 c3 -304 8 -919 11 -1365 l5 -813 -1476 0 -1477 0 6 133
c12 285 104 594 278 937 152 299 274 474 459 660 397 400 915 692 1539 870
204 58 525 124 627 129 l22 1 6 -552z m626 506 c396 -78 771 -209 1124 -392
603 -314 1037 -756 1355 -1382 158 -310 232 -541 277 -862 l6 -48 -1492 0
-1493 0 8 1353 c4 743 9 1356 12 1360 5 8 23 6 203 -29z m2770 -4259 l0 -1205
-1490 0 -1490 0 0 1198 c0 659 3 1202 7 1205 3 4 674 7 1490 7 l1483 0 0
-1205z m-3390 -20 l0 -1205 -1470 0 -1470 0 0 1205 0 1205 1470 0 1470 0 0
-1205z m20 -2750 l0 -1215 -1500 0 -1500 0 0 1215 0 1215 1500 0 1500 0 0
-1215z m3370 20 l0 -1195 -1495 0 -1495 0 0 1195 0 1195 1495 0 1495 0 0
-1195z m-3352 -2852 l2 -1283 -1510 0 -1510 0 0 1285 0 1285 1508 -2 1507 -3
3 -1282z m3352 12 l0 -1275 -1490 0 -1490 0 0 1268 c0 698 3 1272 7 1275 3 4
674 7 1490 7 l1483 0 0 -1275z"/>
</g>
</svg>
